<?xml version="1.0" encoding="utf-8"?>
<svg width="20px" height="20px" viewBox="0 0 20 20" version="1.1" xmlns:xlink="http://www.w3.org/1999/xlink" xmlns="http://www.w3.org/2000/svg">
  <defs>
    <filter id="filter_1">
      <feColorMatrix in="SourceGraphic" type="matrix" values="0 0 0 0 0.25490198 0 0 0 0 0.14509805 0 0 0 0 0.14509805 0 0 0 1 0" color-interpolation-filters="sRGB" />
    </filter>
    <path d="M0 0L20 0L20 20L0 20L0 0Z" id="path_1" />
    <rect width="20" height="20" id="artboard_1" />
    <clipPath id="clip_1">
      <use xlink:href="#artboard_1" clip-rule="evenodd" />
    </clipPath>
    <clipPath id="mask_1">
      <use xlink:href="#path_1" />
    </clipPath>
  </defs>
  <g id="アートボード" clip-path="url(#clip_1)">
    <use xlink:href="#artboard_1" stroke="none" fill="#FFFFFF" fill-opacity="0" />
    <g id="car" filter="url(#filter_1)" artboard="5635be8b-8c4f-457c-a553-873a7f8fbb26">
      <path d="M0 0L20 0L20 20L0 20L0 0Z" id="背景" fill="#7E565C" fill-opacity="0" fill-rule="evenodd" stroke="none" />
      <path d="M1.34035 7.94923C1.43008 7.7527 1.60219 7.42981 1.90371 6.86278C2.04227 6.60153 2.1973 6.31345 2.35598 6.01805L0.965586 6.01805C0.432734 6.01809 7.45058e-08 6.44958 7.45058e-08 6.98364C7.45058e-08 7.51712 0.432734 7.94923 0.965586 7.94923L1.34035 7.94923L1.34035 7.94923ZM19.0344 6.0181L17.644 6.0181C17.8033 6.31353 17.9577 6.60162 18.0963 6.86283C18.3978 7.42986 18.5693 7.75272 18.6597 7.94928L19.0344 7.94928C19.5673 7.94928 20 7.51713 20 6.98369C20 6.44959 19.5673 6.0181 19.0344 6.0181L19.0344 6.0181ZM1.5387 16.3196C1.5387 17.0386 2.12221 17.6215 2.84057 17.6215C3.55956 17.6215 4.14186 17.0386 4.14186 16.3196L4.14186 15.0885L1.5387 15.0885L1.5387 16.3196L1.5387 16.3196ZM15.8569 16.3196C15.8569 17.0386 16.4404 17.6215 17.1594 17.6215C17.8784 17.6215 18.4613 17.0386 18.4613 16.3196L18.4613 15.0885L15.8569 15.0885L15.8569 16.3196L15.8569 16.3196ZM18.2763 8.19096C18.3423 8.21049 15.8666 3.66701 15.7482 3.42166C15.4357 2.77104 14.663 2.37858 13.9098 2.37858C13.0395 2.37858 10.6152 2.37858 10.6152 2.37858C10.6152 2.37858 6.96035 2.37858 6.08941 2.37858C5.33562 2.37858 4.56476 2.77104 4.25101 3.42166C4.13262 3.66701 1.65824 8.21049 1.72355 8.19096C1.72355 8.19096 0.922774 8.98991 0.861719 9.05401C0.524805 9.41596 0.549219 9.72905 0.549219 10.0428C0.549219 10.0428 0.549219 12.9835 0.549219 13.6585C0.549219 14.333 0.669454 14.7023 1.46477 14.7023L18.5351 14.7023C19.3303 14.7023 19.4512 14.333 19.4512 13.6585C19.4512 12.9835 19.4512 10.0428 19.4512 10.0428C19.4512 9.72909 19.475 9.41596 19.1369 9.05401C19.0783 8.98991 18.2763 8.19096 18.2763 8.19096L18.2763 8.19096ZM3.77194 6.79754C3.77194 6.79754 5.3619 3.93375 5.45589 3.74641C5.61639 3.42657 6.07417 3.19465 6.54233 3.19465L13.4576 3.19465C13.9264 3.19465 14.3835 3.42661 14.544 3.74641C14.6387 3.93379 16.2286 6.79754 16.2286 6.79754C16.3751 7.06121 16.2457 7.55196 15.8117 7.55196L4.18819 7.55196C3.75421 7.55192 3.62546 7.06121 3.77194 6.79754L3.77194 6.79754ZM3.55954 13.1665C2.75266 13.1665 2.09836 12.5129 2.09836 11.7059C2.09836 10.8984 2.75266 10.2448 3.55954 10.2448C4.36641 10.2448 5.02012 10.8984 5.02012 11.7059C5.02012 12.5128 4.36641 13.1665 3.55954 13.1665L3.55954 13.1665ZM12.218 13.5614C12.218 13.6682 12.1313 13.7549 12.0251 13.7549L7.97542 13.7549C7.86862 13.7549 7.78194 13.6682 7.78194 13.5614L7.78194 11.7774C7.78194 11.6718 7.86862 11.5857 7.97542 11.5857L12.0251 11.5857C12.1313 11.5857 12.218 11.6718 12.218 11.7774L12.218 13.5614L12.218 13.5614ZM16.4404 13.1665C15.6335 13.1665 14.9786 12.5129 14.9786 11.7059C14.9786 10.8984 15.6335 10.2448 16.4404 10.2448C17.2473 10.2448 17.9016 10.8991 17.9016 11.7059C17.9016 12.5128 17.2473 13.1665 16.4404 13.1665L16.4404 13.1665Z" id="Group" fill="#4B4B4B" stroke="none" />
    </g>
  </g>
</svg>