<?xml version="1.0" encoding="utf-8"?>
<svg width="20px" height="19px" viewBox="0 0 20 19" version="1.1" xmlns:xlink="http://www.w3.org/1999/xlink" xmlns="http://www.w3.org/2000/svg">
  <defs>
    <path d="M0 0L20 0L20 20L0 20L0 0Z" id="path_1" />
    <rect width="20" height="19" id="artboard_1" />
    <clipPath id="clip_1">
      <use xlink:href="#artboard_1" clip-rule="evenodd" />
    </clipPath>
    <clipPath id="mask_1">
      <use xlink:href="#path_1" />
    </clipPath>
  </defs>
  <g id="アートボード" clip-path="url(#clip_1)">
    <use xlink:href="#artboard_1" stroke="none" fill="#FFFFFF" fill-opacity="0" />
    <g id="train" transform="translate(0 -1)" artboard="ca5e76a6-ec46-4f2d-ad00-4b2f0e2db2df">
      <path d="M0 0L20 0L20 20L0 20L0 0Z" id="背景" fill="#FFFFFF" fill-opacity="0" fill-rule="evenodd" stroke="none" />
      <path d="M17.0928 13.7355L17.0928 3.51047C17.0928 1.5716 15.5215 0 13.5823 0L6.4177 0C4.47922 0 2.90723 1.5716 2.90723 3.51047L2.90723 13.7355C2.90723 15.2053 3.97688 16.43 5.37867 16.6738L3.17711 20L5.13453 20L6.03813 18.6343L13.9626 18.6343L14.8662 20L16.8232 20L14.6221 16.6738C16.0235 16.4297 17.0928 15.2054 17.0928 13.7355L17.0928 13.7355ZM6.96023 1.57609L13.0398 1.57609L13.0398 2.82609L6.96023 2.82609L6.96023 1.57609L6.96023 1.57609ZM5.13105 4.85102C5.13105 4.41023 5.48797 4.05266 5.92875 4.05266L14.0716 4.05266C14.512 4.05266 14.8696 4.41023 14.8696 4.85102L14.8696 8.21844C14.8696 8.65922 14.512 9.01645 14.0716 9.01645L5.92879 9.01645C5.48801 9.01645 5.13109 8.65922 5.13109 8.21844L5.13109 4.85102L5.13105 4.85102ZM5.89094 14.6095C5.37695 14.6095 4.96023 14.1928 4.96023 13.6791C4.96023 13.1648 5.37695 12.748 5.89094 12.748C6.40496 12.748 6.82168 13.1648 6.82168 13.6791C6.82168 14.1928 6.40496 14.6095 5.89094 14.6095L5.89094 14.6095ZM6.6257 17.9685L7.30578 16.7185L12.6946 16.7185L13.3747 17.9685L6.6257 17.9685L6.6257 17.9685ZM14.1094 14.6095C13.5954 14.6095 13.1787 14.1928 13.1787 13.6791C13.1787 13.1648 13.5954 12.748 14.1094 12.748C14.6234 12.748 15.0402 13.1648 15.0402 13.6791C15.0402 14.1928 14.6234 14.6095 14.1094 14.6095L14.1094 14.6095Z" id="Group" fill="#4B4B4B" fill-rule="evenodd" stroke="none" />
    </g>
  </g>
</svg>